<?xml version="1.0" standalone="no"?>
<!DOCTYPE svg PUBLIC "-//W3C//DTD SVG 20010904//EN"
 "http://www.w3.org/TR/2001/REC-SVG-20010904/DTD/svg10.dtd">
<svg version="1.0" xmlns="http://www.w3.org/2000/svg"
 width="1024.000000pt" height="1024.000000pt" viewBox="0 0 1024.000000 1024.000000"
 preserveAspectRatio="xMidYMid meet">

<g transform="translate(0.000000,1024.000000) scale(0.100000,-0.100000)"
fill="#000000" stroke="none">
<path d="M2033 8308 c18 -76 48 -338 54 -486 8 -161 4 -212 -11 -141 -9 46
-78 189 -124 255 -116 169 -373 324 -537 324 l-37 0 55 -62 c136 -158 392
-492 492 -643 66 -101 159 -275 151 -283 -4 -3 -7 -3 -9 -1 -1 2 -43 57 -91
123 -190 252 -377 361 -641 373 -143 7 -234 -12 -371 -76 -78 -37 -233 -137
-234 -152 0 -3 60 -6 133 -8 300 -5 545 -58 788 -169 92 -42 254 -139 297
-178 24 -21 19 -20 -43 9 -38 19 -83 39 -100 45 -113 42 -294 62 -411 43 -177
-27 -285 -83 -420 -216 -81 -80 -97 -102 -142 -195 -45 -93 -78 -196 -96 -297
l-5 -32 82 66 c191 155 438 294 626 353 129 41 281 61 421 58 l115 -3 -115
-38 c-296 -98 -453 -222 -561 -442 -66 -135 -89 -238 -88 -390 0 -97 13 -234
18 -188 2 23 160 251 252 363 176 215 427 458 542 524 l48 28 -6 -59 c-5 -57
-25 -416 -25 -460 0 -23 2 -23 131 -23 l130 0 -6 248 c-3 136 -8 257 -11 270
-2 12 -1 22 2 22 16 0 126 -91 223 -185 207 -200 411 -458 577 -732 9 -14 11
24 9 157 -2 151 -6 188 -27 270 -47 176 -107 280 -227 392 -87 83 -191 145
-324 193 -154 56 -155 56 -26 50 291 -13 540 -97 813 -275 l109 -71 -7 87
c-12 147 -69 259 -187 369 -102 95 -213 140 -374 151 -106 7 -213 -13 -348
-66 -60 -23 -110 -40 -113 -37 -9 8 171 116 277 166 246 115 576 191 838 191
l84 0 -23 25 c-36 38 -160 121 -225 149 -224 100 -489 76 -691 -61 -86 -59
-215 -183 -291 -280 -36 -46 -68 -82 -70 -79 -9 8 64 135 130 226 122 170 326
407 537 623 114 116 115 117 82 117 -56 0 -184 -30 -259 -62 -183 -75 -359
-252 -459 -461 l-35 -72 5 113 c5 94 43 431 61 535 l5 27 -161 0 -161 0 5 -22z"/>
<path d="M8083 8314 c-2 -6 -3 -171 -1 -367 2 -197 1 -357 -2 -357 -3 1 -21
35 -40 77 -79 173 -219 341 -365 438 -120 79 -282 135 -435 150 l-65 6 35 -32
c19 -18 98 -89 175 -159 250 -228 469 -466 572 -620 45 -68 95 -161 89 -167
-2 -3 -9 5 -16 17 -45 84 -261 280 -401 363 -266 157 -635 129 -899 -69 l-65
-49 50 -2 c416 -19 714 -87 989 -225 83 -41 226 -135 226 -148 0 -14 2 -14
-84 25 -314 143 -614 100 -831 -119 -99 -101 -146 -195 -180 -363 l-7 -33 79
46 c317 188 582 272 913 290 125 7 135 -1 40 -31 -191 -62 -326 -141 -440
-255 -175 -175 -255 -392 -248 -669 l3 -113 60 88 c147 218 404 503 580 645
82 66 237 179 247 179 3 0 4 -119 1 -264 l-6 -265 126 -3 127 -3 0 65 c0 36
-5 157 -10 270 -5 112 -7 206 -5 209 3 2 31 -13 62 -34 209 -137 461 -407 686
-733 l92 -134 3 114 c4 138 -10 244 -49 363 -36 115 -87 201 -169 288 -107
115 -213 178 -400 237 l-115 37 44 8 c57 10 256 -3 351 -22 235 -47 455 -154
708 -344 56 -43 102 -74 102 -69 0 4 -12 48 -26 96 -84 291 -254 482 -509 570
-72 26 -93 28 -220 29 -155 0 -218 -14 -362 -80 -40 -19 -73 -30 -73 -26 0 24
197 148 330 206 226 101 442 146 759 161 120 5 149 9 134 18 -10 6 -44 30 -74
53 -65 50 -198 114 -289 139 -46 13 -100 18 -185 18 -104 0 -130 -4 -198 -27
-203 -70 -395 -207 -528 -374 -33 -41 -59 -71 -59 -66 0 16 98 160 185 273 81
106 379 414 594 615 l84 78 -74 -7 c-165 -15 -333 -74 -445 -157 -74 -55 -185
-168 -230 -236 -18 -28 -59 -101 -89 -162 -30 -61 -56 -111 -58 -111 -1 0 -2
164 -1 364 l0 365 -94 3 c-62 2 -96 -1 -99 -8z"/>
<path d="M4679 7677 c-234 -144 -590 -363 -792 -487 l-367 -225 3 -1030 2
-1029 75 -44 c41 -24 90 -53 109 -65 l34 -21 -7 536 c-7 463 0 1086 11 1075 2
-2 12 -51 22 -108 11 -57 40 -201 65 -319 99 -475 116 -609 124 -1013 l7 -309
230 -140 c127 -77 275 -167 330 -201 326 -198 581 -350 590 -350 9 0 674 398
1338 800 l248 150 5 1040 5 1039 -398 241 c-219 132 -577 349 -796 482 -220
132 -402 241 -405 240 -4 0 -199 -118 -433 -262z m952 -303 c277 -168 505
-307 507 -309 1 -1 -116 -73 -260 -160 -145 -87 -272 -164 -283 -171 -18 -11
-46 5 -255 137 -129 82 -274 172 -322 201 -48 29 -88 55 -88 58 0 3 25 20 55
38 l56 31 201 -124 c111 -69 205 -124 209 -123 18 8 308 194 308 198 0 3 -46
33 -102 66 l-102 62 -72 -51 -72 -50 -73 45 c-116 71 -118 73 -118 79 0 3 21
16 48 28 26 12 57 30 69 39 23 17 22 17 -71 75 l-94 57 -159 -96 c-321 -196
-493 -305 -493 -314 0 -4 141 -89 252 -152 7 -4 0 -16 -22 -35 -84 -70 -85
-76 -68 -275 8 -82 13 -148 12 -148 0 0 -75 46 -165 103 -91 56 -260 161 -377
232 -116 72 -211 132 -211 135 0 3 100 67 222 142 122 76 384 239 582 363 198
123 365 225 371 225 6 0 238 -138 515 -306z m834 -726 c-6 -286 -15 -759 -16
-913 -1 -149 -3 -144 -110 456 l-12 66 -113 -50 c-63 -28 -116 -57 -119 -66
-2 -9 -25 -126 -49 -261 -85 -467 -134 -822 -144 -1053 l-7 -151 -115 -69
c-164 -99 -482 -287 -486 -287 -6 0 -5 459 3 1174 l6 647 83 59 c181 129 1048
668 1076 670 5 0 6 -100 3 -222z m-1226 -3 c132 -82 240 -152 241 -155 0 -6
-202 -130 -213 -130 -4 0 -87 50 -186 110 l-178 110 -7 68 -6 67 47 43 c26 23
51 41 55 40 3 -2 115 -70 247 -153z m-1054 -126 c182 -113 386 -240 455 -282
69 -42 199 -123 290 -181 l165 -104 5 -891 c3 -490 2 -891 -2 -891 -3 0 -76
45 -161 99 -85 55 -244 151 -354 215 -110 63 -222 128 -249 144 l-49 28 -6
827 c-3 455 -7 828 -10 830 -2 2 -46 31 -96 64 l-93 61 -1 -327 c-1 -312 -1
-323 -16 -261 -133 584 -176 751 -220 866 -3 9 -2 15 3 13 5 -2 158 -97 339
-210z m2080 -914 c20 -82 38 -157 40 -166 4 -12 -18 -30 -80 -68 l-86 -51 6
48 c8 56 51 338 61 402 9 53 5 65 59 -165z m140 -509 c17 -54 23 -92 18 -97
-11 -11 -303 -189 -309 -189 -6 0 -2 182 5 215 5 25 25 41 126 102 66 40 123
69 127 65 3 -4 18 -47 33 -96z"/>
<path d="M6204 6543 c-60 -12 -112 -117 -93 -188 13 -45 55 -78 89 -70 68 17
120 89 120 167 0 65 -50 105 -116 91z"/>
<path d="M5513 6095 l-92 -55 -3 -153 c-2 -83 -5 -414 -6 -734 l-3 -582 188
118 188 118 8 123 c4 68 6 125 3 127 -2 2 -41 -19 -87 -47 -46 -27 -86 -50
-89 -50 -3 0 -4 268 -2 595 2 327 0 595 -5 595 -4 0 -49 -25 -100 -55z"/>
<path d="M4415 5478 l0 -741 270 -159 270 -158 6 58 c4 31 7 359 7 727 l1 670
-270 170 c-148 94 -273 171 -277 172 -4 2 -7 -331 -7 -739z m318 295 l37 -23
0 -485 c0 -267 -2 -485 -5 -485 -3 0 -38 18 -78 40 l-72 39 3 491 2 491 38
-22 c20 -13 54 -33 75 -46z"/>
<path d="M2037 6168 c-4 -46 -7 -102 -7 -125 l0 -43 139 0 139 0 -2 33 c-2 17
-4 74 -5 125 l-1 92 -129 0 -128 0 -6 -82z"/>
<path d="M8050 6141 c0 -60 -3 -116 -6 -125 -5 -14 10 -16 135 -16 l141 0 0
94 c0 51 -3 108 -6 125 l-6 31 -129 0 -129 0 0 -109z"/>
<path d="M2021 5785 l-2 -125 152 0 152 0 -7 61 c-3 34 -6 91 -6 125 l0 64
-143 0 -144 0 -2 -125z"/>
<path d="M8040 5838 c0 -40 -3 -97 -6 -125 l-7 -53 153 0 153 0 -7 92 c-3 50
-6 106 -6 125 l0 33 -140 0 -140 0 0 -72z"/>
<path d="M2014 5571 c-2 -2 -4 -59 -4 -125 l0 -121 163 0 162 0 -3 90 c-1 50
-5 106 -8 125 l-5 35 -150 0 c-83 0 -153 -2 -155 -4z"/>
<path d="M8020 5508 c0 -40 -3 -97 -6 -125 l-7 -53 169 0 169 0 -5 115 c-3 63
-5 119 -5 123 0 4 -71 8 -157 10 l-158 3 0 -73z"/>
<path d="M1997 5148 c-4 -46 -7 -104 -7 -130 l0 -48 180 0 180 0 0 63 c0 34
-3 92 -7 130 l-6 67 -167 0 -167 0 -6 -82z"/>
<path d="M8006 5188 c-3 -24 -6 -80 -7 -126 l-2 -83 183 -2 183 -2 -7 95 c-3
52 -6 110 -6 128 l0 32 -169 0 -169 0 -6 -42z"/>
<path d="M2163 4882 l-183 -2 0 -69 c0 -37 -3 -96 -6 -130 l-7 -61 201 0 202
0 -6 128 c-4 70 -9 129 -13 132 -3 3 -88 4 -188 2z"/>
<path d="M7987 4823 c-4 -38 -7 -98 -7 -135 l0 -68 201 0 200 0 -6 123 c-4 67
-8 128 -10 135 -3 9 -50 12 -188 12 l-184 0 -6 -67z"/>
<path d="M1965 4528 c-2 -7 -5 -66 -7 -130 l-4 -117 213 -3 213 -3 0 35 c0 19
-3 79 -7 133 l-6 97 -199 0 c-150 0 -200 -3 -203 -12z"/>
<path d="M7954 4410 l-9 -130 224 0 224 0 -6 98 c-4 53 -7 112 -7 130 l0 32
-208 0 -209 0 -9 -130z"/>
<path d="M1946 4138 c-3 -29 -8 -88 -10 -130 l-6 -78 230 0 230 0 0 84 c0 46
-3 104 -6 130 l-7 46 -213 0 -213 0 -5 -52z"/>
<path d="M7937 4123 c-4 -38 -7 -94 -7 -125 l0 -58 240 0 240 0 0 33 c0 19 -3
75 -6 125 l-7 92 -227 0 -227 0 -6 -67z"/>
<path d="M2365 3465 c-51 -18 -110 -81 -124 -131 -33 -117 14 -241 106 -280
39 -17 136 -18 166 -3 126 65 158 268 58 368 -57 57 -130 73 -206 46z m147
-104 c53 -59 45 -181 -15 -225 -55 -41 -142 -17 -168 47 -16 39 -16 125 0 156
36 66 133 78 183 22z"/>
<path d="M1152 3308 c4 -182 13 -213 71 -249 44 -28 174 -24 207 6 48 44 54
70 55 240 l0 160 -40 0 -40 0 -2 -140 c-3 -175 -5 -183 -48 -201 -42 -17 -76
-6 -102 33 -15 23 -18 49 -18 168 l0 140 -44 3 -43 3 4 -163z"/>
<path d="M1580 3256 l0 -216 34 0 34 0 7 74 c8 81 12 86 83 86 97 0 153 107
107 205 -22 45 -55 58 -167 63 l-98 4 0 -216z m182 117 c10 -9 18 -29 18 -44
0 -35 -30 -56 -83 -61 l-38 -3 -3 60 c-2 33 -1 64 2 69 7 12 84 -3 104 -21z"/>
<path d="M1904 3456 c-3 -8 -4 -25 -2 -37 3 -21 8 -23 54 -20 49 2 52 1 58
-25 4 -15 7 -89 6 -163 -1 -75 -1 -144 -1 -153 1 -14 10 -18 41 -18 l40 0 2
178 3 177 50 5 c48 5 50 6 50 35 l-1 30 -147 3 c-122 2 -148 0 -153 -12z"/>
<path d="M2666 3443 c4 -16 35 -111 68 -213 l61 -185 31 -3 c31 -3 32 -2 52
65 11 37 30 101 42 141 12 40 24 71 26 69 2 -2 19 -61 39 -132 19 -71 41 -133
48 -137 6 -5 23 -7 36 -6 23 3 30 19 87 190 80 240 79 233 29 233 l-39 0 -40
-138 c-22 -76 -43 -132 -47 -125 -3 7 -21 70 -40 141 l-33 127 -37 0 -37 0
-44 -137 -43 -137 -33 114 c-47 165 -45 160 -92 160 -39 0 -40 -1 -34 -27z"/>
<path d="M3280 3254 l0 -215 38 3 37 3 0 143 c0 78 1 142 2 142 2 0 45 -64 98
-142 90 -136 96 -142 130 -143 l35 -2 0 214 0 214 -37 -3 -38 -3 -3 -134 -3
-135 -90 137 -89 137 -40 0 -40 0 0 -216z"/>
<path d="M3877 3463 c-4 -3 -7 -31 -7 -62 0 -31 -4 -96 -9 -146 -5 -49 -11
-117 -13 -149 l-3 -60 35 0 c34 0 35 1 42 50 4 27 11 85 16 129 l8 80 57 -112
c31 -61 61 -114 66 -117 5 -3 12 5 15 18 3 13 27 68 53 122 l48 99 12 -135 c6
-74 12 -135 12 -135 1 -1 17 1 36 3 l36 4 -7 127 c-3 69 -9 162 -13 206 l-6
80 -40 0 -40 0 -51 -105 c-29 -58 -55 -104 -59 -103 -4 1 -13 12 -19 25 -105
201 -96 188 -130 188 -18 0 -36 -3 -39 -7z"/>
<path d="M4484 3455 c-2 -5 -35 -99 -74 -209 -38 -109 -70 -200 -70 -202 0 -2
18 -4 41 -4 38 0 42 2 56 40 l16 41 75 -3 75 -3 12 -35 c11 -33 15 -35 60 -38
43 -3 47 -1 40 15 -11 26 -67 181 -110 303 l-36 105 -41 0 c-22 0 -42 -4 -44
-10z m75 -189 c12 -37 21 -70 21 -72 0 -2 -22 -4 -50 -4 -32 0 -50 4 -50 12 0
25 44 148 51 141 4 -5 17 -39 28 -77z"/>
<path d="M4831 3456 c-34 -19 -50 -54 -51 -107 0 -54 16 -73 100 -114 67 -33
90 -53 90 -76 0 -44 -77 -51 -150 -14 l-50 25 0 -35 c0 -19 -1 -38 -2 -42 -1
-5 16 -18 38 -31 32 -19 51 -22 107 -20 60 3 71 7 98 35 39 39 50 104 24 152
-13 25 -34 41 -91 68 -77 35 -95 54 -77 82 15 24 56 25 107 3 l44 -20 6 30 c9
46 8 48 -29 64 -43 17 -132 18 -164 0z"/>
<path d="M5207 3433 c-4 -21 -7 -92 -7 -158 0 -66 -5 -127 -10 -135 -6 -10
-24 -15 -55 -14 l-45 1 0 -37 c0 -31 4 -39 23 -44 38 -10 67 -7 106 13 58 30
66 60 66 246 l0 160 -36 3 c-35 3 -36 2 -42 -35z"/>
<path d="M5375 3458 c-3 -8 -4 -103 -3 -213 l3 -200 40 0 40 0 0 210 0 210
-38 3 c-24 2 -39 -1 -42 -10z"/>
<path d="M5563 3463 c-10 -3 -13 -55 -13 -209 l0 -204 89 0 c169 0 234 46 247
178 13 120 -43 209 -146 231 -52 11 -155 14 -177 4z m170 -87 c86 -35 101
-168 26 -231 -24 -19 -42 -25 -80 -25 l-49 0 0 135 0 135 35 0 c20 0 50 -6 68
-14z"/>
<path d="M6215 3441 c-17 -34 -131 -347 -137 -376 -2 -14 4 -18 35 -19 36 -2
40 0 54 36 l15 38 84 0 83 0 12 -40 c12 -39 13 -40 57 -40 38 0 43 2 37 18 -3
9 -36 100 -72 202 -36 102 -69 190 -74 195 -4 6 -24 12 -43 13 -30 2 -37 -2
-51 -27z m80 -178 l23 -63 -54 0 -53 0 26 77 c15 43 29 71 31 63 3 -8 15 -43
27 -77z"/>
<path d="M6530 3255 l0 -215 125 0 125 0 0 40 0 40 -85 0 -85 0 0 175 0 175
-40 0 -40 0 0 -215z"/>
<path d="M7070 3254 l0 -214 40 0 40 0 0 85 c0 78 2 85 20 85 14 0 37 -26 76
-85 47 -71 61 -85 83 -85 49 0 54 12 25 66 -14 27 -38 64 -52 83 -20 27 -23
36 -12 39 8 3 28 18 44 34 26 26 28 34 24 84 -8 95 -59 125 -210 123 l-78 -2
0 -213z m184 125 c54 -42 23 -99 -56 -99 l-48 0 0 60 0 60 39 0 c24 0 48 -8
65 -21z"/>
<path d="M7575 3458 c-2 -7 -33 -92 -69 -188 -35 -96 -68 -188 -71 -203 -8
-29 -7 -29 35 -25 39 3 44 7 55 38 l12 35 80 3 81 3 7 -30 c4 -17 12 -34 18
-38 19 -13 89 -12 84 1 -2 6 -34 94 -71 195 -37 101 -71 192 -77 202 -11 22
-77 27 -84 7z m95 -258 c0 -3 -24 -3 -54 -2 l-54 4 25 76 26 76 29 -75 c15
-40 28 -76 28 -79z"/>
<path d="M7882 3258 l3 -213 38 -3 37 -3 0 95 0 96 85 0 85 0 0 -95 0 -95 40
0 40 0 0 215 0 215 -40 0 -40 0 0 -80 0 -80 -85 0 -85 0 0 80 0 80 -40 0 -40
0 2 -212z"/>
<path d="M8330 3448 c0 -13 -4 -72 -9 -133 -6 -60 -12 -147 -16 -192 l-5 -83
39 0 39 0 6 83 c3 45 7 103 8 130 1 26 4 47 8 47 3 0 33 -51 66 -114 l60 -115
54 119 c30 65 57 116 60 115 3 -2 7 -32 9 -67 1 -34 6 -92 9 -128 l7 -64 38
-2 c34 -3 37 -1 37 24 -1 24 -28 394 -29 400 -1 1 -16 2 -34 2 -42 0 -53 -12
-108 -122 -24 -49 -46 -88 -49 -88 -3 0 -29 47 -58 105 l-53 105 -40 0 c-34 0
-39 -3 -39 -22z"/>
<path d="M8917 3367 c-19 -56 -54 -153 -76 -214 l-41 -113 41 0 c38 0 42 3 57
40 l17 40 81 0 81 0 12 -40 c11 -39 13 -40 56 -40 25 0 45 1 45 3 0 1 -36 96
-79 212 l-78 210 -40 1 -40 2 -36 -101z m79 -167 c-28 -3 -53 -4 -55 -3 -2 1
9 37 24 79 l28 77 27 -74 27 -74 -51 -5z"/>
<path d="M6820 3253 l0 -43 88 0 87 0 -3 43 -4 42 -84 0 -84 0 0 -42z"/>
<path d="M4646 2640 c-93 -30 -134 -150 -83 -250 27 -54 72 -80 140 -80 54 0
90 16 127 55 22 24 25 35 25 105 0 84 -12 112 -67 153 -30 22 -100 31 -142 17z
m89 -64 c43 -18 55 -42 55 -106 0 -64 -30 -100 -84 -100 -51 0 -87 35 -93 90
-6 60 10 98 49 115 41 18 33 17 73 1z"/>
<path d="M6893 2630 c-23 -14 -34 -29 -39 -55 -10 -57 8 -82 80 -115 74 -34
81 -42 66 -70 -13 -24 -55 -26 -107 -5 -42 18 -39 18 -48 -18 -6 -24 -3 -29
29 -42 46 -19 119 -19 156 0 20 10 33 28 41 54 18 59 -2 89 -81 127 -67 33
-82 56 -49 77 12 7 30 6 65 -6 27 -9 49 -15 51 -14 1 1 3 15 5 31 3 25 -2 30
-32 42 -51 18 -101 17 -137 -6z"/>
<path d="M3070 2475 l0 -165 35 0 35 0 0 107 0 108 78 -107 c70 -98 80 -107
110 -108 l32 0 0 165 0 165 -35 0 -35 0 0 -101 0 -102 -77 102 c-70 92 -80
101 -110 101 l-33 0 0 -165z"/>
<path d="M3500 2475 l0 -165 111 0 110 0 -3 33 -3 32 -75 0 -75 0 0 39 1 39
59 1 60 1 3 33 3 32 -60 0 c-46 0 -61 3 -61 14 0 8 -3 21 -6 30 -5 14 4 16 65
16 55 0 71 3 71 14 0 8 3 21 6 30 5 14 -7 16 -100 16 l-106 0 0 -165z"/>
<path d="M3830 2632 c0 -5 22 -78 49 -163 48 -151 50 -154 77 -154 28 0 30 4
58 98 17 53 33 97 36 97 4 0 20 -44 36 -97 29 -95 31 -98 59 -98 28 0 29 2 77
155 26 85 48 159 48 163 0 5 -14 7 -32 5 -32 -3 -33 -5 -64 -103 l-31 -100
-16 55 c-9 30 -22 76 -29 103 -11 44 -14 47 -44 47 -31 0 -32 -1 -58 -87 -15
-49 -29 -95 -32 -103 -3 -8 -20 31 -36 88 l-31 102 -33 0 c-19 0 -34 -4 -34
-8z"/>
<path d="M4980 2475 l0 -165 35 0 35 0 0 70 c0 49 4 70 13 70 6 0 34 -32 60
-70 44 -64 51 -70 83 -70 18 0 34 2 34 5 0 2 -18 34 -40 71 l-41 65 31 29 c21
20 30 37 30 60 0 73 -43 100 -160 100 l-80 0 0 -165z m164 83 c18 -29 -4 -53
-53 -56 l-41 -3 0 41 0 41 41 -3 c27 -2 46 -9 53 -20z"/>
<path d="M5352 2478 l3 -163 108 -3 107 -3 0 33 0 33 -72 0 -73 0 -3 133 -3
132 -35 0 -34 0 2 -162z"/>
<path d="M5680 2475 l0 -165 110 0 110 0 0 30 0 29 -72 3 -73 3 -3 38 -3 37
60 0 61 0 0 30 0 30 -60 0 -60 0 0 35 0 35 70 0 70 0 0 30 0 30 -105 0 -105 0
0 -165z"/>
<path d="M6126 2632 c-6 -11 -63 -153 -97 -244 l-28 -78 35 0 c31 0 37 4 50
35 14 34 15 35 74 35 59 0 60 -1 74 -35 13 -31 19 -35 50 -35 20 0 36 1 36 3
0 2 -27 74 -60 161 -33 87 -60 160 -60 162 0 8 -69 4 -74 -4z m58 -139 c9 -26
16 -48 16 -50 0 -2 -18 -3 -39 -3 l-39 0 16 50 c9 28 19 50 23 50 4 0 14 -21
23 -47z"/>
<path d="M6435 2608 c-3 -18 -5 -91 -3 -163 l3 -130 33 -3 32 -3 0 107 c0 124
-6 125 90 -8 57 -80 71 -93 98 -96 l32 -3 0 165 0 166 -35 0 -34 0 -3 -95 -3
-96 -74 96 c-62 80 -78 95 -102 95 -24 0 -29 -5 -34 -32z"/>
</g>
</svg>
